<svg width="512" height="512" viewBox="0 0 512 512" xmlns="http://www.w3.org/2000/svg">
<defs>
<clipPath id="icon-clip"><rect x="0" y="0" width="512" height="512" rx="102"/></clipPath>
</defs>
<g clip-path="url(#icon-clip)">
<rect x="0" y="0" width="512" height="512" fill="#4AADE8"/>
<rect x="0" y="300" width="512" height="212" fill="#3B8FC4"/>
<path d="M0 330 Q75 295 150 330 Q225 365 300 330 Q375 295 450 330 Q490 348 512 330 L512 512 L0 512Z" fill="#2E7BAF" opacity="0.6"/>
<path d="M0 355 Q100 320 200 355 Q300 390 400 355 Q460 335 512 355 L512 512 L0 512Z" fill="#256A9A" opacity="0.5"/>
<circle cx="380" cy="90" r="45" fill="#FFD966"/>
<line x1="380" y1="32" x2="380" y2="12" stroke="#FFD966" stroke-width="4" stroke-linecap="round"/>
<line x1="380" y1="148" x2="380" y2="168" stroke="#FFD966" stroke-width="4" stroke-linecap="round"/>
<line x1="322" y1="90" x2="302" y2="90" stroke="#FFD966" stroke-width="4" stroke-linecap="round"/>
<line x1="438" y1="90" x2="458" y2="90" stroke="#FFD966" stroke-width="4" stroke-linecap="round"/>
<line x1="348" y1="58" x2="334" y2="44" stroke="#FFD966" stroke-width="4" stroke-linecap="round"/>
<line x1="412" y1="122" x2="426" y2="136" stroke="#FFD966" stroke-width="4" stroke-linecap="round"/>
<line x1="412" y1="58" x2="426" y2="44" stroke="#FFD966" stroke-width="4" stroke-linecap="round"/>
<line x1="348" y1="122" x2="334" y2="136" stroke="#FFD966" stroke-width="4" stroke-linecap="round"/>
<path d="M100 300 Q112 160 150 110 Q188 60 210 135 Q232 210 260 160 Q288 110 316 210 Q344 300 360 300" fill="none" stroke="#FF6B6B" stroke-width="8" stroke-linecap="round" stroke-linejoin="round"/>
<line x1="100" y1="300" x2="100" y2="340" stroke="#E8E8E8" stroke-width="4"/>
<line x1="150" y1="220" x2="150" y2="340" stroke="#E8E8E8" stroke-width="4"/>
<line x1="210" y1="250" x2="210" y2="340" stroke="#E8E8E8" stroke-width="4"/>
<line x1="260" y1="220" x2="260" y2="340" stroke="#E8E8E8" stroke-width="4"/>
<line x1="316" y1="270" x2="316" y2="340" stroke="#E8E8E8" stroke-width="4"/>
<line x1="360" y1="300" x2="360" y2="340" stroke="#E8E8E8" stroke-width="4"/>
<rect x="94" y="104" width="18" height="13" rx="4" fill="#FFD966"/>
<rect x="204" y="129" width="18" height="13" rx="4" fill="#7ED47E"/>
<rect x="310" y="204" width="18" height="13" rx="4" fill="#B08DE8"/>
<path d="M50 270 L75 180 L100 270Z" fill="#7ED47E"/>
<path d="M62 270 L75 210 L88 270Z" fill="#5CB85C"/>
<path d="M390 280 L420 180 L450 280Z" fill="#7ED47E"/>
<path d="M405 280 L420 215 L435 280Z" fill="#5CB85C"/>
<circle cx="75" cy="170" r="7" fill="#FF6B6B"/>
<circle cx="420" cy="170" r="7" fill="#FFD966"/>
<text x="256" y="430" text-anchor="middle" font-family="Poppins, sans-serif" font-size="48" font-weight="700" fill="#FFFFFF" letter-spacing="1">LAKE SIDE</text>
<text x="256" y="475" text-anchor="middle" font-family="Poppins, sans-serif" font-size="28" font-weight="500" fill="#FFD966" letter-spacing="4">MANIA</text>
</g>
<rect x="0" y="0" width="512" height="512" rx="102" fill="none" stroke="rgba(255,255,255,0.15)" stroke-width="2"/>
</svg>
